<svg xmlns="http://www.w3.org/2000/svg" xmlns:xlink="http://www.w3.org/1999/xlink" width="1980" zoomAndPan="magnify" viewBox="0 0 1485 764.999999" height="1020" preserveAspectRatio="xMidYMid meet" version="1.0"><defs><clipPath id="d63c741876"><path d="M 692 265 L 794 265 L 794 501.320312 L 692 501.320312 Z M 692 265 " clip-rule="nonzero"/></clipPath></defs><path fill="#ffffff" d="M 658.746094 467.925781 C 653.722656 467.925781 650.371094 466.25 647.023438 462.902344 L 580.019531 395.898438 C 573.320312 389.199219 573.320312 379.148438 580.019531 372.449219 L 647.023438 305.445312 C 653.722656 298.746094 663.773438 298.746094 670.472656 305.445312 C 677.171875 312.148438 677.171875 322.195312 670.472656 328.898438 L 615.195312 384.171875 L 670.472656 439.449219 C 677.171875 446.148438 677.171875 456.199219 670.472656 462.902344 C 667.121094 466.25 663.773438 467.925781 658.746094 467.925781 Z M 658.746094 467.925781 " fill-opacity="1" fill-rule="nonzero"/><path fill="#ffffff" d="M 826.25 467.925781 C 821.226562 467.925781 817.875 466.25 814.527344 462.902344 C 807.824219 456.199219 807.824219 446.148438 814.527344 439.449219 L 869.800781 384.171875 L 814.527344 328.898438 C 807.824219 322.195312 807.824219 312.148438 814.527344 305.445312 C 821.226562 298.746094 831.277344 298.746094 837.976562 305.445312 L 904.976562 372.449219 C 911.679688 379.148438 911.679688 389.199219 904.976562 395.898438 L 837.976562 462.902344 C 834.625 466.25 831.277344 467.925781 826.25 467.925781 Z M 826.25 467.925781 " fill-opacity="1" fill-rule="nonzero"/><g clip-path="url(#d63c741876)"><path fill="#ffffff" d="M 709 501.425781 C 707.324219 501.425781 705.648438 501.425781 703.972656 499.75 C 695.597656 496.402344 690.574219 488.027344 693.921875 477.976562 L 760.925781 276.972656 C 764.273438 268.597656 772.648438 263.570312 782.699219 266.921875 C 791.074219 270.269531 796.101562 278.644531 792.75 288.695312 L 725.75 489.699219 C 722.398438 496.402344 715.699219 501.425781 709 501.425781 Z M 709 501.425781 " fill-opacity="1" fill-rule="nonzero"/></g></svg>